<svg xmlns="http://www.w3.org/2000/svg" width="2444.096" height="335.248" viewBox="0 0 2444.096 335.248">
  <g id="Grupo_1" data-name="Grupo 1" transform="translate(-533.916 -173.268)">
    <circle id="Elipse_5" data-name="Elipse 5" cx="15.5" cy="15.5" r="15.5" transform="translate(2946.512 359.187)" fill="none" stroke="#fff" stroke-width="1"/>
    <path id="diferentials" d="M2098.512,5.516a176.785,176.785,0,0,1-19.207-1.029,158.63,158.63,0,0,1-18.3-3.088,100.364,100.364,0,0,1-16.842-5.443,86.617,86.617,0,0,1-14.792-8.084,67.739,67.739,0,0,1-12.4-10.911,72.685,72.685,0,0,1-9.643-13.89,72.551,72.551,0,0,1-6.429-17.046,103.861,103.861,0,0,1-2.75-20.333l-.022-.521h39.764l.017.482a51.374,51.374,0,0,0,1.693,11.685,37.344,37.344,0,0,0,4.162,9.731,41.789,41.789,0,0,0,6.252,7.886,41.056,41.056,0,0,0,7.94,6.082,64.416,64.416,0,0,0,19.91,7.464,114.9,114.9,0,0,0,22.928,2.27,142.083,142.083,0,0,0,19.084-1.363,70.037,70.037,0,0,0,18.337-4.979,35.543,35.543,0,0,0,7.588-4.44,34.008,34.008,0,0,0,6.123-6.123,24.366,24.366,0,0,0,4.021-7.876,33.889,33.889,0,0,0,1.346-9.83,28.843,28.843,0,0,0-2.8-13,24.693,24.693,0,0,0-8.384-9.386,80.058,80.058,0,0,0-12.745-6.967,117.856,117.856,0,0,0-15.609-5.505c-11.333-3.173-23.823-6.085-37.124-8.655a194.237,194.237,0,0,1-37.261-10.973,83.373,83.373,0,0,1-15.769-8.545,73.954,73.954,0,0,1-12.913-11.421,42.409,42.409,0,0,1-8.653-15.456,67.233,67.233,0,0,1-2.874-20.444,66.063,66.063,0,0,1,2.011-16.656,50.961,50.961,0,0,1,6.045-14.161,67.338,67.338,0,0,1,9.188-11.658,66.024,66.024,0,0,1,11.487-9.247,89.54,89.54,0,0,1,13.413-6.993,102.084,102.084,0,0,1,15.007-4.926,131.3,131.3,0,0,1,31.356-3.891,187.5,187.5,0,0,1,37.035,3.43,94.139,94.139,0,0,1,15.988,4.7,80.2,80.2,0,0,1,14.053,7.227,60.407,60.407,0,0,1,11.782,10,65.466,65.466,0,0,1,9.133,12.981,71.3,71.3,0,0,1,6.2,16.245,108.466,108.466,0,0,1,2.979,19.757l.034.532h-39.755l-.037-.46a47.305,47.305,0,0,0-1.917-10.322A32.647,32.647,0,0,0,2143.24-186a38.5,38.5,0,0,0-12.605-11.93,57.769,57.769,0,0,0-16.953-6.554,87.921,87.921,0,0,0-18.817-2.041,115.38,115.38,0,0,0-17.48,1.362,58.894,58.894,0,0,0-16.052,4.747,32.259,32.259,0,0,0-11.677,8.979,19.2,19.2,0,0,0-3.333,6.39,27.676,27.676,0,0,0-1.118,8.118,22.855,22.855,0,0,0,1.727,8.982,21.492,21.492,0,0,0,5.182,7.3,56.181,56.181,0,0,0,17.854,10.844,158.035,158.035,0,0,0,24.546,7.272c9.084,1.968,18.292,4.04,27.368,6.158h0a292.91,292.91,0,0,1,28.542,7.764,93.838,93.838,0,0,1,24.755,12.15,60.022,60.022,0,0,1,9.772,8.564,60.617,60.617,0,0,1,7.7,10.518,47.022,47.022,0,0,1,5.013,12.9,68.9,68.9,0,0,1,1.666,15.618,81.7,81.7,0,0,1-2.238,19.729,55.381,55.381,0,0,1-6.731,16.1,70.809,70.809,0,0,1-10.333,12.859,71.29,71.29,0,0,1-13.088,10.1,92.233,92.233,0,0,1-15.359,7.393A105.6,105.6,0,0,1,2134.4,2.087,192.924,192.924,0,0,1,2098.512,5.516ZM1999.17-73.828a102.379,102.379,0,0,0,2.7,19.616,71.54,71.54,0,0,0,6.339,16.811,71.665,71.665,0,0,0,9.509,13.7,66.734,66.734,0,0,0,12.221,10.749,85.6,85.6,0,0,0,14.62,7.99A99.371,99.371,0,0,0,2061.232.425a157.657,157.657,0,0,0,18.182,3.068,175.762,175.762,0,0,0,19.1,1.023,191.941,191.941,0,0,0,35.7-3.411A104.612,104.612,0,0,0,2151.233-3.6a91.238,91.238,0,0,0,15.193-7.313,70.32,70.32,0,0,0,12.9-9.961,69.8,69.8,0,0,0,10.187-12.677,54.384,54.384,0,0,0,6.607-15.815,80.71,80.71,0,0,0,2.208-19.487,67.887,67.887,0,0,0-1.64-15.39,46.015,46.015,0,0,0-4.9-12.631,59.637,59.637,0,0,0-7.574-10.344,59.036,59.036,0,0,0-9.609-8.421,92.847,92.847,0,0,0-24.492-12.018,291.954,291.954,0,0,0-28.451-7.739h-.007c-9.071-2.116-18.274-4.187-27.353-6.154a159.049,159.049,0,0,1-24.7-7.319,57.181,57.181,0,0,1-18.17-11.044,22.487,22.487,0,0,1-5.42-7.636,23.845,23.845,0,0,1-1.807-9.373,28.666,28.666,0,0,1,1.162-8.412,20.2,20.2,0,0,1,3.507-6.72,33.248,33.248,0,0,1,12.034-9.261,59.9,59.9,0,0,1,16.324-4.829,116.382,116.382,0,0,1,17.632-1.374,88.92,88.92,0,0,1,19.031,2.064,58.759,58.759,0,0,1,17.246,6.669,39.486,39.486,0,0,1,12.93,12.238,33.629,33.629,0,0,1,4.051,8.621,47.878,47.878,0,0,1,1.92,10.081h37.766a106.876,106.876,0,0,0-2.915-19.042,70.308,70.308,0,0,0-6.112-16.017,64.467,64.467,0,0,0-8.993-12.783,59.411,59.411,0,0,0-11.587-9.835,79.165,79.165,0,0,0-13.878-7.137,93.138,93.138,0,0,0-15.818-4.649,186.508,186.508,0,0,0-36.837-3.41,130.294,130.294,0,0,0-31.116,3.862,101.024,101.024,0,0,0-14.86,4.878,88.549,88.549,0,0,0-13.263,6.915,65.014,65.014,0,0,0-11.313,9.107,66.342,66.342,0,0,0-9.052,11.484,49.963,49.963,0,0,0-5.925,13.884,65.056,65.056,0,0,0-1.979,16.4,66.246,66.246,0,0,0,2.826,20.139,41.418,41.418,0,0,0,8.447,15.1,72.946,72.946,0,0,0,12.737,11.266,82.363,82.363,0,0,0,15.581,8.441,193.225,193.225,0,0,0,37.068,10.915c13.327,2.575,25.844,5.493,37.2,8.674a118.843,118.843,0,0,1,15.742,5.553,81.041,81.041,0,0,1,12.9,7.055,25.682,25.682,0,0,1,8.717,9.766,29.831,29.831,0,0,1,2.9,13.447,34.885,34.885,0,0,1-1.389,10.12,25.357,25.357,0,0,1-4.187,8.2,35.008,35.008,0,0,1-6.3,6.3,36.545,36.545,0,0,1-7.8,4.566,71.022,71.022,0,0,1-18.6,5.052,143.077,143.077,0,0,1-19.219,1.373,115.933,115.933,0,0,1-23.128-2.29,65.41,65.41,0,0,1-20.218-7.583,42.04,42.04,0,0,1-8.134-6.23,42.786,42.786,0,0,1-6.4-8.074,38.338,38.338,0,0,1-4.274-9.991,51.987,51.987,0,0,1-1.708-11.431ZM1848.624,5.516a41.165,41.165,0,0,1-13.675-2.138,29.558,29.558,0,0,1-10.609-6.436,26.551,26.551,0,0,1-6.8-11.324,53.157,53.157,0,0,1-2.235-15.272,100.847,100.847,0,0,1-16.485,15.52,88.46,88.46,0,0,1-20.006,11.178A117.661,117.661,0,0,1,1756.66,3.4a132.176,132.176,0,0,1-23.86,2.117,123.857,123.857,0,0,1-30.447-3.663,79.17,79.17,0,0,1-13.481-4.7,65.132,65.132,0,0,1-11.546-6.778,53.179,53.179,0,0,1-9.494-9.034,59.121,59.121,0,0,1-7.3-11.44,57.816,57.816,0,0,1-4.658-13.972,83.727,83.727,0,0,1-1.549-16.573,90.575,90.575,0,0,1,1.721-18.342,54.882,54.882,0,0,1,5.179-14.726,63.624,63.624,0,0,1,7.986-11.663,58.6,58.6,0,0,1,10.176-9.256,78.658,78.658,0,0,1,12.047-7.056,89.421,89.421,0,0,1,13.643-5.1c9.545-2.727,19.456-5.032,29.457-6.851,10.6-2.121,20.818-3.733,30.361-4.794a169.3,169.3,0,0,0,25.233-4.546,52.491,52.491,0,0,0,9.711-3.613,33.809,33.809,0,0,0,7.414-4.942,17.359,17.359,0,0,0,4.654-6.817,26.431,26.431,0,0,0,1.563-9.454,50.54,50.54,0,0,0-1.184-11.4,29.625,29.625,0,0,0-3.53-8.857,34.558,34.558,0,0,0-5.393-6.743,31.344,31.344,0,0,0-6.733-4.937,49.8,49.8,0,0,0-16.7-5.416,127.53,127.53,0,0,0-18.4-1.363,101.68,101.68,0,0,0-22.461,2.324,67.105,67.105,0,0,0-18.332,6.958,30.354,30.354,0,0,0-7.15,5.622,32.7,32.7,0,0,0-5.3,7.678,44.314,44.314,0,0,0-3.465,9.765,67.746,67.746,0,0,0-1.612,11.868l-.025.474h-39.756l.022-.521a102.856,102.856,0,0,1,2.75-20.277,70.56,70.56,0,0,1,6.431-16.878,72.576,72.576,0,0,1,9.642-13.717,68.878,68.878,0,0,1,12.4-10.852,87.508,87.508,0,0,1,14.734-8.083,99.534,99.534,0,0,1,16.671-5.443,153.718,153.718,0,0,1,18.243-3.088,180.533,180.533,0,0,1,19.491-1.029,222.2,222.2,0,0,1,31.764,2.285,89.865,89.865,0,0,1,15.075,3.5,78.916,78.916,0,0,1,13.6,5.909,55.1,55.1,0,0,1,11.619,8.571,57.146,57.146,0,0,1,9.086,11.443,50.713,50.713,0,0,1,5.873,14.852,82.957,82.957,0,0,1,1.951,18.7v121.3c0,9.037.532,15.746,1.581,19.943a6.883,6.883,0,0,0,3.248,4.48,13.689,13.689,0,0,0,6.983,1.526,38.072,38.072,0,0,0,11.7-2.254l.658-.219V-.627l-.245.145a40.339,40.339,0,0,1-12.12,4.5A77.305,77.305,0,0,1,1848.624,5.516Zm-32.332-37.905v1.381a53.752,53.752,0,0,0,2.2,16.32,25.561,25.561,0,0,0,6.537,10.906,28.563,28.563,0,0,0,10.253,6.218,40.175,40.175,0,0,0,13.343,2.081,76.325,76.325,0,0,0,15.742-1.471A39.648,39.648,0,0,0,1875.94-1.2V-30.318a38.073,38.073,0,0,1-11.356,2.09c-6.311,0-10.079-2.275-11.2-6.762-1.069-4.276-1.611-11.067-1.611-20.186v-121.3a81.977,81.977,0,0,0-1.925-18.469,49.706,49.706,0,0,0-5.754-14.56,56.128,56.128,0,0,0-8.926-11.243,54.1,54.1,0,0,0-11.409-8.415,77.9,77.9,0,0,0-13.423-5.833,88.866,88.866,0,0,0-14.907-3.457,221.213,221.213,0,0,0-31.621-2.275,179.525,179.525,0,0,0-19.383,1.023,152.629,152.629,0,0,0-18.123,3.068,98.516,98.516,0,0,0-16.5,5.387,86.515,86.515,0,0,0-14.565,7.991,67.871,67.871,0,0,0-12.222,10.694,71.577,71.577,0,0,0-9.509,13.529,69.567,69.567,0,0,0-6.338,16.638,101.393,101.393,0,0,0-2.7,19.558h37.765a68.236,68.236,0,0,1,1.611-11.57,45.3,45.3,0,0,1,3.546-9.986,33.7,33.7,0,0,1,5.468-7.912,31.357,31.357,0,0,1,7.385-5.807,68.1,68.1,0,0,1,18.6-7.064,102.674,102.674,0,0,1,22.683-2.349,128.507,128.507,0,0,1,18.541,1.373,50.79,50.79,0,0,1,17.039,5.528,32.347,32.347,0,0,1,6.948,5.095,35.539,35.539,0,0,1,5.55,6.938,30.6,30.6,0,0,1,3.653,9.155,51.529,51.529,0,0,1,1.21,11.628,27.414,27.414,0,0,1-1.629,9.812,18.35,18.35,0,0,1-4.922,7.205,34.813,34.813,0,0,1-7.634,5.09,53.468,53.468,0,0,1-9.9,3.683A170.25,170.25,0,0,1,1765-137.443c-9.516,1.057-19.7,2.666-30.281,4.781l-.009,0c-9.969,1.813-19.849,4.11-29.364,6.829a88.4,88.4,0,0,0-13.49,5.044,77.635,77.635,0,0,0-11.893,6.966,57.587,57.587,0,0,0-10,9.1,62.614,62.614,0,0,0-7.86,11.479,53.883,53.883,0,0,0-5.081,14.458,89.573,89.573,0,0,0-1.7,18.138,82.742,82.742,0,0,0,1.529,16.374,56.824,56.824,0,0,0,4.576,13.73,58.1,58.1,0,0,0,7.177,11.246,52.162,52.162,0,0,0,9.316,8.864,64.1,64.1,0,0,0,11.368,6.674A78.117,78.117,0,0,0,1702.6.883a122.852,122.852,0,0,0,30.2,3.633,131.161,131.161,0,0,0,23.679-2.1,116.678,116.678,0,0,0,21.965-6.3,87.458,87.458,0,0,0,19.78-11.052,100.455,100.455,0,0,0,17.185-16.391ZM1024.632,5.516A145.526,145.526,0,0,1,998.15,3.228a103.748,103.748,0,0,1-22.739-6.874,102,102,0,0,1-19.189-11,95.136,95.136,0,0,1-15.873-14.669,102.421,102.421,0,0,1-12.43-18.1,118.8,118.8,0,0,1-8.873-21.294A174.3,174.3,0,0,1,913.5-92.6a209.01,209.01,0,0,1-2.457-25.94v-.017a157.81,157.81,0,0,1,2.059-25.846,130.976,130.976,0,0,1,6.18-23.574,126.451,126.451,0,0,1,9.9-20.945A113,113,0,0,1,942.409-206.9a105.848,105.848,0,0,1,16.265-14.661,106.845,106.845,0,0,1,19.013-11,102.371,102.371,0,0,1,21.365-6.874,116.241,116.241,0,0,1,23.3-2.29,120.2,120.2,0,0,1,28.906,3.264,81.227,81.227,0,0,1,23.572,9.809,108.045,108.045,0,0,1,18.783,14.832,102.5,102.5,0,0,1,14.664,18.387,130.388,130.388,0,0,1,10.643,21.057,134.844,134.844,0,0,1,6.751,22.885,207.411,207.411,0,0,1,3.371,23.2,173.052,173.052,0,0,1,.514,22.066l-.02.479H953.071a98.721,98.721,0,0,0,.693,14.544,89.231,89.231,0,0,0,2.948,14.227,68.566,68.566,0,0,0,5.319,13.015,65.416,65.416,0,0,0,7.806,11.427,60.815,60.815,0,0,0,10.289,9.554,70.8,70.8,0,0,0,12.792,7.414,68.526,68.526,0,0,0,15.278,4.753,94.98,94.98,0,0,0,17.8,1.587,82.18,82.18,0,0,0,22.265-2.831,56.221,56.221,0,0,0,17.8-8.474,47.587,47.587,0,0,0,12.917-14.216,66.362,66.362,0,0,0,7.635-20.141l.085-.395h39.315l-.116.6a129.6,129.6,0,0,1-5.064,18.683,101.514,101.514,0,0,1-7.419,16.239,86.032,86.032,0,0,1-9.776,13.789,81.429,81.429,0,0,1-12.13,11.327,91.871,91.871,0,0,1-14.156,8.826,98.551,98.551,0,0,1-15.87,6.3,115.126,115.126,0,0,1-17.576,3.779A143,143,0,0,1,1024.632,5.516ZM912.044-118.569a208.008,208.008,0,0,0,2.445,25.807A173.259,173.259,0,0,0,920-69a117.824,117.824,0,0,0,8.8,21.114,101.407,101.407,0,0,0,12.308,17.924,94.136,94.136,0,0,0,15.706,14.515,100.989,100.989,0,0,0,19,10.89,102.745,102.745,0,0,0,22.519,6.806,144.5,144.5,0,0,0,26.3,2.272,142.007,142.007,0,0,0,19.141-1.249A114.1,114.1,0,0,0,1061.2-.479,97.556,97.556,0,0,0,1076.9-6.717a90.863,90.863,0,0,0,14-8.73,80.429,80.429,0,0,0,11.981-11.188,85.039,85.039,0,0,0,9.661-13.628,100.5,100.5,0,0,0,7.345-16.079,128.046,128.046,0,0,0,4.907-17.942h-37.292a67.08,67.08,0,0,1-7.669,20.049,48.581,48.581,0,0,1-13.189,14.512,57.217,57.217,0,0,1-18.113,8.626A83.171,83.171,0,0,1,1026-28.228a95.972,95.972,0,0,1-17.992-1.6,69.51,69.51,0,0,1-15.5-4.823,71.794,71.794,0,0,1-12.972-7.52,61.856,61.856,0,0,1-10.459-9.712,66.45,66.45,0,0,1-7.926-11.6,69.552,69.552,0,0,1-5.4-13.205,90.184,90.184,0,0,1-2.981-14.387,99.882,99.882,0,0,1-.687-15.181l.014-.485h176.478a172.394,172.394,0,0,0-.531-21.459,206.442,206.442,0,0,0-3.355-23.086,133.861,133.861,0,0,0-6.7-22.715,129.374,129.374,0,0,0-10.561-20.9,101.515,101.515,0,0,0-14.521-18.207A107.051,107.051,0,0,0,1074.3-227.8a80.248,80.248,0,0,0-23.282-9.686,119.2,119.2,0,0,0-28.664-3.234,115.244,115.244,0,0,0-23.1,2.27,101.362,101.362,0,0,0-21.156,6.806,105.823,105.823,0,0,0-18.835,10.892,104.866,104.866,0,0,0-16.111,14.523,112.006,112.006,0,0,0-13.108,17.818,125.423,125.423,0,0,0-9.821,20.779,129.969,129.969,0,0,0-6.132,23.394A156.785,156.785,0,0,0,912.044-118.569ZM636.12,5.516a145.527,145.527,0,0,1-26.482-2.288A103.755,103.755,0,0,1,586.9-3.646a101.98,101.98,0,0,1-19.189-11,95.153,95.153,0,0,1-15.872-14.669,102.418,102.418,0,0,1-12.43-18.1,118.8,118.8,0,0,1-8.873-21.294A174.293,174.293,0,0,1,524.989-92.6a208.962,208.962,0,0,1-2.457-25.94v-.017a157.835,157.835,0,0,1,2.059-25.846,130.991,130.991,0,0,1,6.18-23.574,126.446,126.446,0,0,1,9.9-20.945A113,113,0,0,1,553.9-206.9a105.851,105.851,0,0,1,16.265-14.661,106.845,106.845,0,0,1,19.013-11,102.371,102.371,0,0,1,21.365-6.874,116.241,116.241,0,0,1,23.3-2.29,120.2,120.2,0,0,1,28.906,3.264,81.225,81.225,0,0,1,23.572,9.809A108.048,108.048,0,0,1,705.1-213.82a102.5,102.5,0,0,1,14.663,18.387,130.347,130.347,0,0,1,10.643,21.057,134.823,134.823,0,0,1,6.751,22.885,207.4,207.4,0,0,1,3.371,23.2,173.03,173.03,0,0,1,.514,22.066l-.02.479H564.559a98.729,98.729,0,0,0,.693,14.544A89.243,89.243,0,0,0,568.2-76.977a68.559,68.559,0,0,0,5.319,13.015,65.416,65.416,0,0,0,7.806,11.427,60.813,60.813,0,0,0,10.289,9.554,70.8,70.8,0,0,0,12.792,7.414,68.528,68.528,0,0,0,15.278,4.753,94.979,94.979,0,0,0,17.8,1.587,82.183,82.183,0,0,0,22.265-2.831,56.222,56.222,0,0,0,17.8-8.474,47.583,47.583,0,0,0,12.917-14.216A66.358,66.358,0,0,0,698.1-74.89l.085-.394H737.5l-.116.6a129.583,129.583,0,0,1-5.064,18.683A101.514,101.514,0,0,1,724.9-39.766a86.036,86.036,0,0,1-9.776,13.789A81.426,81.426,0,0,1,703-14.65a91.874,91.874,0,0,1-14.156,8.826,98.554,98.554,0,0,1-15.87,6.3A115.129,115.129,0,0,1,655.4,4.257,143,143,0,0,1,636.12,5.516ZM523.532-118.569a207.971,207.971,0,0,0,2.445,25.807A173.3,173.3,0,0,0,531.49-69a117.824,117.824,0,0,0,8.8,21.114,101.407,101.407,0,0,0,12.308,17.924A94.136,94.136,0,0,0,568.3-15.452a100.979,100.979,0,0,0,19,10.89A102.747,102.747,0,0,0,609.82,2.244a144.5,144.5,0,0,0,26.3,2.272,142.009,142.009,0,0,0,19.141-1.249A114.1,114.1,0,0,0,672.684-.479a97.556,97.556,0,0,0,15.708-6.238,90.863,90.863,0,0,0,14-8.73,80.432,80.432,0,0,0,11.981-11.188,85.043,85.043,0,0,0,9.661-13.628,100.5,100.5,0,0,0,7.345-16.079,128.063,128.063,0,0,0,4.907-17.942H698.995a67.081,67.081,0,0,1-7.669,20.049,48.577,48.577,0,0,1-13.189,14.512A57.218,57.218,0,0,1,660.025-31.1a83.176,83.176,0,0,1-22.537,2.869,95.974,95.974,0,0,1-17.992-1.6,69.512,69.512,0,0,1-15.5-4.823,71.792,71.792,0,0,1-12.973-7.52,61.858,61.858,0,0,1-10.459-9.712,66.469,66.469,0,0,1-7.926-11.6,69.591,69.591,0,0,1-5.4-13.205,90.184,90.184,0,0,1-2.981-14.387,99.889,99.889,0,0,1-.687-15.181l.014-.485H740.064a172.394,172.394,0,0,0-.531-21.459,206.442,206.442,0,0,0-3.355-23.086,133.861,133.861,0,0,0-6.7-22.715,129.359,129.359,0,0,0-10.561-20.9A101.5,101.5,0,0,0,704.4-213.11,107.053,107.053,0,0,0,685.787-227.8,80.248,80.248,0,0,0,662.5-237.49a119.2,119.2,0,0,0-28.664-3.234,115.244,115.244,0,0,0-23.1,2.27,101.363,101.363,0,0,0-21.156,6.806,105.823,105.823,0,0,0-18.835,10.892,104.865,104.865,0,0,0-16.111,14.523,112.01,112.01,0,0,0-13.108,17.818,125.417,125.417,0,0,0-9.821,20.779,129.931,129.931,0,0,0-6.132,23.394A156.781,156.781,0,0,0,523.532-118.569ZM124.944,5.516A125.231,125.231,0,0,1,99.248,3,93.518,93.518,0,0,1,77.07-4.568,103.679,103.679,0,0,1,58.4-16.367,96.3,96.3,0,0,1,43.157-31.608,112,112,0,0,1,31.3-49.93,126.481,126.481,0,0,1,22.778-70.99a154.523,154.523,0,0,1-5.147-23.1,172.032,172.032,0,0,1-1.715-24.467,177.846,177.846,0,0,1,1.658-24.465,159.128,159.128,0,0,1,4.975-23.1,121.081,121.081,0,0,1,8.357-21.006,106.3,106.3,0,0,1,11.8-18.154A94.888,94.888,0,0,1,57.946-220.3,102.749,102.749,0,0,1,76.618-231.87a95.271,95.271,0,0,1,22.061-7.393,125.119,125.119,0,0,1,25.353-2.461,115.818,115.818,0,0,1,19.694,1.832,100.531,100.531,0,0,1,21.081,6.186,90.3,90.3,0,0,1,19.947,11.463,61.445,61.445,0,0,1,8.678,7.988,65.855,65.855,0,0,1,7.033,9.467h.131v-121.3h39.76V.5H200.6V-31.42h-.1a58.21,58.21,0,0,1-12.281,16.736,60.252,60.252,0,0,1-17.932,11.5,108.117,108.117,0,0,1-21.646,6.528A126.066,126.066,0,0,1,124.944,5.516Zm-.912-246.24a124.12,124.12,0,0,0-25.149,2.441,94.268,94.268,0,0,0-21.829,7.314,101.729,101.729,0,0,0-18.491,11.457,93.9,93.9,0,0,0-15.081,14.855,105.3,105.3,0,0,0-11.686,17.984,120.084,120.084,0,0,0-8.287,20.832,158.081,158.081,0,0,0-4.943,22.955,176.806,176.806,0,0,0-1.648,24.327,171.007,171.007,0,0,0,1.7,24.325,153.5,153.5,0,0,0,5.113,22.953A125.506,125.506,0,0,0,32.193-50.39,111.022,111.022,0,0,0,43.939-32.232,95.309,95.309,0,0,0,59.022-17.149,102.668,102.668,0,0,0,77.514-5.464a92.509,92.509,0,0,0,21.94,7.483,124.23,124.23,0,0,0,25.49,2.5,125.094,125.094,0,0,0,23.5-2.157,107.122,107.122,0,0,0,21.446-6.467,59.26,59.26,0,0,0,17.636-11.3,57.293,57.293,0,0,0,12.205-16.727l.137-.281H201.6V-.5h37.76V-325.084H201.6v121.3H199.9l-.146-.24a64.93,64.93,0,0,0-7.07-9.559,60.415,60.415,0,0,0-8.536-7.858,89.274,89.274,0,0,0-19.725-11.337,99.545,99.545,0,0,0-20.871-6.126A114.869,114.869,0,0,0,124.032-240.724ZM1954,.5h-39.76V-326.084H1954Zm-38.76-1H1953V-325.084h-37.76ZM1607.9.5h-39.76V-236.252h39.76Zm-38.76-1h37.76V-235.252h-37.76ZM1524,.5h-30.14A140.342,140.342,0,0,1,1468-1.561a46.737,46.737,0,0,1-9.8-2.939,32.333,32.333,0,0,1-7.758-4.691,28.377,28.377,0,0,1-5.861-6.73,38.953,38.953,0,0,1-4.1-9.008c-2.134-6.706-3.215-15.655-3.215-26.6V-201.052H1397.14v-35.2h40.128v-70.68h39.76v70.68H1524v35.2h-46.968V-55.176a42.035,42.035,0,0,0,1.122,10.81,10.831,10.831,0,0,0,4.141,6.111,18.75,18.75,0,0,0,8.661,2.874,129.377,129.377,0,0,0,14.76.681H1524ZM1398.14-202.052h40.128V-51.528c0,10.841,1.066,19.689,3.168,26.3a37.948,37.948,0,0,0,3.993,8.776,27.365,27.365,0,0,0,5.653,6.494,31.327,31.327,0,0,0,7.518,4.544,45.734,45.734,0,0,0,9.585,2.875A139.366,139.366,0,0,0,1493.856-.5H1523V-33.7h-17.284a130.328,130.328,0,0,1-14.88-.688,19.707,19.707,0,0,1-9.123-3.053,11.8,11.8,0,0,1-4.523-6.657,42.971,42.971,0,0,1-1.158-11.078V-202.052H1523v-33.2h-46.968v-70.68h-37.76v70.68H1398.14ZM1364.852.5h-39.76V-159.6a56.213,56.213,0,0,0-3.161-19.435,40.79,40.79,0,0,0-9.46-14.867,40.615,40.615,0,0,0-14.979-9.46,57.913,57.913,0,0,0-19.779-3.162,94.787,94.787,0,0,0-16.5,1.36,66.254,66.254,0,0,0-14.086,4.073,60.935,60.935,0,0,0-11.816,6.558,55.326,55.326,0,0,0-9.66,8.812,63.872,63.872,0,0,0-7.522,10.8,70.528,70.528,0,0,0-5.377,12.508,87.336,87.336,0,0,0-3.23,14,105.176,105.176,0,0,0-1.078,15.26V.5h-39.76V-236.252h37.48v37.392h.12a91.3,91.3,0,0,1,13.784-18.6,76.487,76.487,0,0,1,17.5-13.483,81.356,81.356,0,0,1,21.048-8.087,107.213,107.213,0,0,1,24.568-2.692,132.685,132.685,0,0,1,21.4,1.6,80.684,80.684,0,0,1,17.551,4.819,71.436,71.436,0,0,1,14.121,7.692,59.486,59.486,0,0,1,11.151,10.232,63.262,63.262,0,0,1,8.216,12.583,72.058,72.058,0,0,1,5.339,14.751,147.059,147.059,0,0,1,3.891,35Zm-38.76-1h37.76V-155.04a146.056,146.056,0,0,0-3.862-34.764,71.044,71.044,0,0,0-5.263-14.546,62.265,62.265,0,0,0-8.086-12.384,58.465,58.465,0,0,0-10.964-10.06,70.443,70.443,0,0,0-13.923-7.584,79.714,79.714,0,0,0-17.333-4.757,131.7,131.7,0,0,0-21.237-1.589,106.227,106.227,0,0,0-24.338,2.666,80.351,80.351,0,0,0-20.79,7.987,75.488,75.488,0,0,0-17.271,13.307,90.444,90.444,0,0,0-13.774,18.65l-.143.254h-1.7v-37.392h-35.48V-.5h37.76V-133.152a106.159,106.159,0,0,1,1.088-15.406,88.264,88.264,0,0,1,3.268-14.16,71.534,71.534,0,0,1,5.453-12.686,64.871,64.871,0,0,1,7.64-10.972,56.327,56.327,0,0,1,9.834-8.972,61.921,61.921,0,0,1,12.01-6.666,67.237,67.237,0,0,1,14.3-4.136,95.761,95.761,0,0,1,16.675-1.376,58.9,58.9,0,0,1,20.121,3.222,41.6,41.6,0,0,1,15.345,9.692,41.787,41.787,0,0,1,9.692,15.229,57.2,57.2,0,0,1,3.223,19.781ZM818.564.5H778.8V-236.252h37.48v49.7h.1a130.8,130.8,0,0,1,15.656-24.783,87.4,87.4,0,0,1,19.034-17.542,73.091,73.091,0,0,1,21.791-9.686,103.516,103.516,0,0,1,26.581-3.223c1.281,0,2.594.019,3.9.057l.486.014v42.026h-.5a136,136,0,0,0-21.467,1.59,88.807,88.807,0,0,0-18.024,4.761,68.45,68.45,0,0,0-14.713,7.808A58.17,58.17,0,0,0,837.6-174.788a70.2,70.2,0,0,0-8.6,13.527,86.3,86.3,0,0,0-5.893,16.151,135.78,135.78,0,0,0-3.407,18.8,192.053,192.053,0,0,0-1.137,21.433ZM779.8-.5h37.76V-104.88a193.128,193.128,0,0,1,1.143-21.545,136.816,136.816,0,0,1,3.433-18.937A87.288,87.288,0,0,1,828.1-161.7a71.2,71.2,0,0,1,8.726-13.719,59.153,59.153,0,0,1,11.727-10.922,69.451,69.451,0,0,1,14.927-7.924,89.814,89.814,0,0,1,18.228-4.816,136.385,136.385,0,0,1,21.125-1.6v-40.054c-1.138-.029-2.276-.044-3.389-.044a102.514,102.514,0,0,0-26.324,3.189,72.093,72.093,0,0,0-21.494,9.552A86.4,86.4,0,0,0,832.815-210.7a130.089,130.089,0,0,0-15.671,24.871l-.138.279h-1.723v-49.7H779.8ZM456.044.5h-39.76V-201.052H376.612v-35.2h39.672v-34.612a83.921,83.921,0,0,1,1.047-13.576,61.107,61.107,0,0,1,3.147-11.853,49,49,0,0,1,5.255-10.121,45.742,45.742,0,0,1,7.362-8.371,49.926,49.926,0,0,1,9.371-6.55,60.933,60.933,0,0,1,11.279-4.67,97.423,97.423,0,0,1,28.247-3.727,100.2,100.2,0,0,1,12.6.916,67.682,67.682,0,0,1,12.634,2.757l.342.114v34.818l-.671-.244a47.784,47.784,0,0,0-10.83-2.481,95.889,95.889,0,0,0-10.887-.681,51.672,51.672,0,0,0-12.419,1.353,27.329,27.329,0,0,0-9.181,4.027,15.951,15.951,0,0,0-5.633,7.745,37.47,37.47,0,0,0-1.907,12.823v32.332h45.6v35.2h-45.6Zm-38.76-1h37.76V-202.052h45.6v-33.2h-45.6v-33.332a38.438,38.438,0,0,1,1.969-13.169,16.93,16.93,0,0,1,5.994-8.215,28.319,28.319,0,0,1,9.515-4.181,52.668,52.668,0,0,1,12.661-1.383,96.867,96.867,0,0,1,11,.687,49.342,49.342,0,0,1,10.387,2.3v-32.675a67.4,67.4,0,0,0-12.1-2.6,99.235,99.235,0,0,0-12.476-.908,96.423,96.423,0,0,0-27.955,3.683,59.927,59.927,0,0,0-11.094,4.592,48.928,48.928,0,0,0-9.183,6.418,44.73,44.73,0,0,0-7.2,8.188,48,48,0,0,0-5.147,9.914,60.109,60.109,0,0,0-3.094,11.659,82.926,82.926,0,0,0-1.034,13.413v35.612H377.612v33.2h39.672ZM341.132.5h-39.76V-236.252h39.76Zm-38.76-1h37.76V-235.252h-37.76ZM1741.464-28.228a80.59,80.59,0,0,1-17.436-1.836,42.781,42.781,0,0,1-14.533-6,32.953,32.953,0,0,1-10.186-10.879,27.4,27.4,0,0,1-2.962-7.489,38.583,38.583,0,0,1-.983-8.951,48.043,48.043,0,0,1,1.672-13.191,29.524,29.524,0,0,1,5.046-10.145,42.179,42.179,0,0,1,7.672-7.557,46.613,46.613,0,0,1,9.622-5.589,97.369,97.369,0,0,1,23.835-6.647c8.783-1.363,17.61-2.591,26.236-3.65,8.608-1.057,16.956-2.435,24.809-4.1a60.118,60.118,0,0,0,10.627-3.222,38.648,38.648,0,0,0,8.328-4.669l.8-.6V-82.08a44.517,44.517,0,0,1-4.146,17.757,47.793,47.793,0,0,1-5.3,9.1,59.41,59.41,0,0,1-7.588,8.393,59.474,59.474,0,0,1-10,7.359,82.863,82.863,0,0,1-12.5,5.965,75.911,75.911,0,0,1-15.148,3.96A113.971,113.971,0,0,1,1741.464-28.228Zm71.548-92.543a40.473,40.473,0,0,1-7.744,4.211,61.13,61.13,0,0,1-10.8,3.277c-7.882,1.667-16.258,3.051-24.9,4.111-8.615,1.058-17.432,2.284-26.2,3.646a96.347,96.347,0,0,0-23.589,6.576,45.606,45.606,0,0,0-9.416,5.468,41.172,41.172,0,0,0-7.49,7.378A28.535,28.535,0,0,0,1698-76.3a47.048,47.048,0,0,0-1.634,12.915,37.591,37.591,0,0,0,.955,8.719,26.388,26.388,0,0,0,2.852,7.217,31.96,31.96,0,0,0,9.878,10.553,41.788,41.788,0,0,0,14.2,5.856,79.592,79.592,0,0,0,17.219,1.812,112.975,112.975,0,0,0,17.705-1.3,74.908,74.908,0,0,0,14.948-3.906,81.836,81.836,0,0,0,12.35-5.891,58.5,58.5,0,0,0,9.834-7.234,58.424,58.424,0,0,0,7.46-8.251,46.769,46.769,0,0,0,5.189-8.911,43.534,43.534,0,0,0,4.062-17.355ZM130.416-28.228a80.9,80.9,0,0,1-17.608-1.836A61.827,61.827,0,0,1,97.58-35.581a67.987,67.987,0,0,1-12.748-8.614A64.561,64.561,0,0,1,74.607-55.339a83.487,83.487,0,0,1-7.8-13.247,93.122,93.122,0,0,1-5.5-14.958,121.479,121.479,0,0,1-3.263-15.969,122.574,122.574,0,0,1-1.088-16.312,156.308,156.308,0,0,1,3.66-33.852,98.029,98.029,0,0,1,4.813-15.584,83.888,83.888,0,0,1,7.111-13.762,61.5,61.5,0,0,1,9.655-11.609A64.94,64.94,0,0,1,94.6-199.707a57.373,57.373,0,0,1,15.3-5.866,80.734,80.734,0,0,1,18.239-1.951,87.354,87.354,0,0,1,18.689,1.893,61.7,61.7,0,0,1,15.746,5.69,70.665,70.665,0,0,1,12.916,8.784,65.143,65.143,0,0,1,10.282,11.2,78.479,78.479,0,0,1,7.745,13.366,90.7,90.7,0,0,1,5.331,15.3,137,137,0,0,1,4.119,33.639,137.834,137.834,0,0,1-3.89,32.494,91.317,91.317,0,0,1-5.1,15.188,81.5,81.5,0,0,1-7.513,13.478,66.567,66.567,0,0,1-9.993,11.429,69.82,69.82,0,0,1-12.516,9.014,57.36,57.36,0,0,1-15.295,5.866A80.737,80.737,0,0,1,130.416-28.228Zm-2.28-178.3a79.751,79.751,0,0,0-18.013,1.925,56.382,56.382,0,0,0-15.029,5.762A63.94,63.94,0,0,0,82.878-189.9a60.513,60.513,0,0,0-9.5,11.42,82.888,82.888,0,0,0-7.025,13.6,97.016,97.016,0,0,0-4.763,15.424,155.315,155.315,0,0,0-3.636,33.636,121.549,121.549,0,0,0,1.079,16.178A120.5,120.5,0,0,0,62.27-83.809a92.116,92.116,0,0,0,5.443,14.8,82.48,82.48,0,0,0,7.705,13.088A63.579,63.579,0,0,0,85.484-44.953a67.013,67.013,0,0,0,12.56,8.486,60.837,60.837,0,0,0,14.982,5.427,79.908,79.908,0,0,0,17.39,1.812,79.736,79.736,0,0,0,18.013-1.925,56.372,56.372,0,0,0,15.029-5.762A68.835,68.835,0,0,0,175.794-45.8a65.558,65.558,0,0,0,9.843-11.257,80.487,80.487,0,0,0,7.421-13.312A90.329,90.329,0,0,0,198.1-85.39a136.839,136.839,0,0,0,3.862-32.258,136,136,0,0,0-4.089-33.393,89.67,89.67,0,0,0-5.271-15.134,77.463,77.463,0,0,0-7.645-13.2A64.135,64.135,0,0,0,174.835-190.4a69.656,69.656,0,0,0-12.734-8.658,60.7,60.7,0,0,0-15.49-5.6A86.362,86.362,0,0,0,128.136-206.524Zm960.414,66.576H952.05l.036-.533a84.965,84.965,0,0,1,1.95-13.36A79.11,79.11,0,0,1,958.05-166.4a72.081,72.081,0,0,1,5.969-11.422,67.914,67.914,0,0,1,7.81-9.934,61.734,61.734,0,0,1,9.6-8.218,66.208,66.208,0,0,1,11.314-6.26,62.142,62.142,0,0,1,12.929-3.966,76.158,76.158,0,0,1,14.4-1.32,73.091,73.091,0,0,1,14.061,1.321,62.512,62.512,0,0,1,12.814,3.965,70.818,70.818,0,0,1,11.366,6.2,66.012,66.012,0,0,1,9.764,8.041,64.573,64.573,0,0,1,8.042,9.823,70.989,70.989,0,0,1,6.2,11.539,79.106,79.106,0,0,1,4.188,12.735,82.063,82.063,0,0,1,2.008,13.42Zm-135.43-1h134.36a80.969,80.969,0,0,0-1.945-12.723,78.129,78.129,0,0,0-4.134-12.573,69.98,69.98,0,0,0-6.112-11.376,63.548,63.548,0,0,0-7.918-9.671,64.994,64.994,0,0,0-9.616-7.919,69.816,69.816,0,0,0-11.206-6.112,61.525,61.525,0,0,0-12.608-3.9,72.113,72.113,0,0,0-13.868-1.3,75.149,75.149,0,0,0-14.212,1.3,61.144,61.144,0,0,0-12.721,3.9A65.222,65.222,0,0,0,982-195.156a60.7,60.7,0,0,0-9.441,8.084,66.922,66.922,0,0,0-7.694,9.788,71.1,71.1,0,0,0-5.886,11.264,78.175,78.175,0,0,0-3.964,12.4A83.8,83.8,0,0,0,953.12-140.948Zm-253.082,1h-136.5l.036-.533a84.965,84.965,0,0,1,1.95-13.36,79.11,79.11,0,0,1,4.016-12.562,72.082,72.082,0,0,1,5.969-11.422,67.914,67.914,0,0,1,7.81-9.934,61.729,61.729,0,0,1,9.6-8.218,66.229,66.229,0,0,1,11.314-6.26,62.149,62.149,0,0,1,12.929-3.966,76.157,76.157,0,0,1,14.4-1.32,73.092,73.092,0,0,1,14.061,1.321,62.513,62.513,0,0,1,12.814,3.965,70.817,70.817,0,0,1,11.366,6.2A66.012,66.012,0,0,1,679.566-188a64.581,64.581,0,0,1,8.043,9.823,70.989,70.989,0,0,1,6.2,11.539A79.118,79.118,0,0,1,698-153.9,82.07,82.07,0,0,1,700-140.481Zm-135.43-1h134.36a80.969,80.969,0,0,0-1.945-12.723,78.123,78.123,0,0,0-4.134-12.573,69.976,69.976,0,0,0-6.112-11.376,63.551,63.551,0,0,0-7.917-9.671,64.992,64.992,0,0,0-9.616-7.919,69.817,69.817,0,0,0-11.206-6.112,61.527,61.527,0,0,0-12.608-3.9,72.113,72.113,0,0,0-13.868-1.3,75.149,75.149,0,0,0-14.212,1.3,61.146,61.146,0,0,0-12.721,3.9,65.226,65.226,0,0,0-11.143,6.165,60.7,60.7,0,0,0-9.441,8.084,66.918,66.918,0,0,0-7.694,9.788,71.1,71.1,0,0,0-5.886,11.264,78.174,78.174,0,0,0-3.964,12.4A83.8,83.8,0,0,0,564.608-140.948ZM1607.9-277.66h-39.76v-48.424h39.76Zm-38.76-1h37.76v-46.424h-37.76Zm-1228.008,1h-39.76v-48.424h39.76Zm-38.76-1h37.76v-46.424h-37.76Z" transform="translate(518 503)" fill="#707070"/>
  </g>
</svg>
